<?xml version="1.0" encoding="UTF-8"?>
<svg width="58px" height="62px" viewBox="0 0 58 62" version="1.1" xmlns="http://www.w3.org/2000/svg" xmlns:xlink="http://www.w3.org/1999/xlink">
    <!-- Generator: Sketch 52.1 (67048) - http://www.bohemiancoding.com/sketch -->
    <title>Group</title>
    <desc>Created with Sketch.</desc>
    <g id="Page-1" stroke="none" stroke-width="1" fill="none" fill-rule="evenodd">
        <g id="Group" fill="#FFFFFF">
            <path d="M3.98397897,31.6764492 C3.07216054,30.7747417 1.59517653,30.7747417 0.683358102,31.6764492 C-0.227111487,32.5768089 -0.228460331,34.0392194 0.683358102,34.9409269 L27.3500007,61.3249695 C28.2618192,62.226677 29.7388032,62.226677 30.6506216,61.3249695 L57.3172642,34.9409269 C58.2284082,34.0392194 58.2290827,32.5781567 57.3172642,31.6764492 C56.4054458,30.7747417 54.9284618,30.7747417 54.0166434,31.6751014 L29.0003112,55.737483 L3.98397897,31.6764492 Z" id="Path"></path>
            <path d="M3.98397897,0.676449207 C3.07216054,-0.225258302 1.59517653,-0.225258302 0.683358102,0.676449207 C-0.227111487,1.57680887 -0.228460331,3.03921941 0.683358102,3.94092692 L27.3500007,30.3249695 C28.2618192,31.226677 29.7388032,31.226677 30.6506216,30.3249695 L57.3172642,3.94092692 C58.2284082,3.03921941 58.2290827,1.57815672 57.3172642,0.676449207 C56.4054458,-0.225258302 54.9284618,-0.225258302 54.0166434,0.675101363 L29.0003112,24.737483 L3.98397897,0.676449207 Z" id="Path-Copy" opacity="0.548316592"></path>
        </g>
    </g>
</svg>