<?xml version="1.0" encoding="UTF-8"?>
<svg width="22px" height="22px" viewBox="0 0 22 22" version="1.1" xmlns="http://www.w3.org/2000/svg" xmlns:xlink="http://www.w3.org/1999/xlink">
    <!-- Generator: Sketch 49.2 (51160) - http://www.bohemiancoding.com/sketch -->
    <title>Group 18</title>
    <desc>Created with Sketch.</desc>
    <defs></defs>
    <g id="Page-1" stroke="none" stroke-width="1" fill="none" fill-rule="evenodd">
        <g id="Landingpage-White" transform="translate(-522.000000, -8394.000000)">
            <g id="Group-6" transform="translate(-6.000000, 8132.000000)">
                <g id="Group-18" transform="translate(529.000000, 263.000000)">
                    <g id="download-hexagon" transform="translate(5.500000, 5.000000)" fill="#FFFFFF" fill-rule="nonzero">
                        <g id="Group">
                            <path d="M4.07142857,0.962732919 L4.07142857,8.06832298 L1.41428571,5.56521739 C1.24285714,5.40372671 0.985714286,5.40372671 0.814285714,5.56521739 C0.642857143,5.72670807 0.642857143,5.9689441 0.814285714,6.13043478 L4.24285714,9.36024845 C4.24285714,9.36024845 4.32857143,9.44099379 4.41428571,9.44099379 C4.5,9.44099379 4.5,9.44099379 4.58571429,9.44099379 C4.67142857,9.44099379 4.67142857,9.44099379 4.75714286,9.44099379 C4.84285714,9.44099379 4.84285714,9.36024845 4.92857143,9.36024845 L8.35714286,6.13043478 C8.52857143,5.9689441 8.52857143,5.72670807 8.35714286,5.56521739 C8.18571429,5.40372671 7.92857143,5.40372671 7.75714286,5.56521739 L4.92857143,8.06832298 L4.92857143,0.962732919 C4.92857143,0.720496894 4.75714286,0.559006211 4.5,0.559006211 C4.24285714,0.559006211 4.07142857,0.720496894 4.07142857,0.962732919 Z" id="Shape"></path>
                        </g>
                    </g>
                    <circle id="Oval-2" stroke="#FFFFFF" cx="10" cy="10" r="10"></circle>
                </g>
            </g>
        </g>
    </g>
</svg>