<?xml version="1.0" encoding="UTF-8"?>
<svg width="26px" height="17px" viewBox="0 0 26 17" version="1.1" xmlns="http://www.w3.org/2000/svg" xmlns:xlink="http://www.w3.org/1999/xlink">
    <!-- Generator: Sketch 49.2 (51160) - http://www.bohemiancoding.com/sketch -->
    <title>email</title>
    <desc>Created with Sketch.</desc>
    <defs></defs>
    <g id="Page-1" stroke="none" stroke-width="1" fill="none" fill-rule="evenodd">
        <g id="Landingpage-White" transform="translate(-788.000000, -8396.000000)" fill="#FFFFFF" fill-rule="nonzero">
            <g id="Group-6" transform="translate(-6.000000, 8132.000000)">
                <g id="email" transform="translate(794.000000, 264.000000)">
                    <path d="M26,0.3 C26,0.2 25.8859649,0.2 25.8859649,0.1 C25.8859649,0.1 25.8859649,0.1 25.8859649,0.1 C25.8859649,0.1 25.8859649,0.1 25.8859649,0.1 C25.8859649,0.1 25.7719298,0 25.7719298,0 C25.7719298,0 25.6578947,0 25.6578947,0 C25.6578947,0 25.5438596,0 25.5438596,0 L0.456140351,0 C0.456140351,0 0.342105263,0 0.342105263,0 C0.342105263,0 0.228070175,0 0.228070175,0 C0.228070175,0 0.114035088,0 0.114035088,0.1 C0.114035088,0.1 0.114035088,0.1 0.114035088,0.1 C0.114035088,0.1 0.114035088,0.1 0.114035088,0.1 C0.114035088,0.1 0,0.2 0,0.3 C0,0.4 0,0.4 0,0.5 C0,0.5 0,0.5 0,0.5 L0,16.5 C0,16.5 0,16.5 0,16.6 C0,16.6 0,16.7 0,16.7 C0,16.7 0,16.8 0.114035088,16.8 C0.114035088,16.8 0.114035088,16.8 0.114035088,16.9 C0.114035088,16.9 0.114035088,16.9 0.114035088,16.9 C0.114035088,16.9 0.228070175,17 0.228070175,17 C0.228070175,17 0.228070175,17 0.228070175,17 C0.342105263,17 0.342105263,17 0.456140351,17 L25.5438596,17 C25.6578947,17 25.6578947,17 25.7719298,17 C25.7719298,17 25.7719298,17 25.7719298,17 C25.8859649,17 25.8859649,16.9 25.8859649,16.9 C25.8859649,16.9 25.8859649,16.9 25.8859649,16.9 C25.8859649,16.9 25.8859649,16.9 25.8859649,16.8 C25.8859649,16.8 25.8859649,16.7 26,16.7 C26,16.7 26,16.6 26,16.6 C26,16.6 26,16.6 26,16.5 L26,0.5 C26,0.5 26,0.5 26,0.5 C26,0.4 26,0.4 26,0.3 Z M24.8596491,15.4 L16.877193,8.9 L24.8596491,1.7 L24.8596491,15.4 Z M0.912280702,1.7 L8.89473684,8.9 L0.912280702,15.4 L0.912280702,1.7 Z M12.8859649,11 L1.71052632,1 L24.0614035,1 L12.8859649,11 Z M9.69298246,9.6 L12.4298246,12.1 C12.5438596,12.2 12.6578947,12.3 12.8859649,12.3 C13.1140351,12.3 13.2280702,12.2 13.3421053,12.1 L16.0789474,9.6 L23.9473684,16 L1.8245614,16 L9.69298246,9.6 Z" id="Shape"></path>
                </g>
            </g>
        </g>
    </g>
</svg>