<?xml version="1.0" encoding="UTF-8"?>
<svg width="322px" height="490px" viewBox="0 0 322 490" version="1.1" xmlns="http://www.w3.org/2000/svg" xmlns:xlink="http://www.w3.org/1999/xlink">
    <!-- Generator: Sketch 52.2 (67145) - http://www.bohemiancoding.com/sketch -->
    <title>002-place-localizer</title>
    <desc>Created with Sketch.</desc>
    <g id="Page-1" stroke="none" stroke-width="1" fill="none" fill-rule="evenodd">
        <g id="002-place-localizer" fill="#FFFFFF" fill-rule="nonzero">
            <path d="M161.001,0 C72.458,0 0.424,71.987 0.424,160.472 C0.424,245.512 146.354,475.618 152.566,485.372 C154.402,488.254 157.583,490 161.001,490 C164.419,490 167.6,488.254 169.435,485.372 C175.647,475.618 321.576,245.511 321.576,160.472 C321.576,71.987 249.542,0 161.001,0 Z M161.001,461.127 C147.794,439.764 120.992,395.54 94.452,346.539 C46.023,257.121 20.425,192.781 20.425,160.472 C20.424,83.015 83.487,20 161.001,20 C238.515,20 301.576,83.015 301.576,160.472 C301.576,192.781 275.977,257.121 227.549,346.539 C201.009,395.539 174.207,439.764 161.001,461.127 Z" id="Shape"></path>
            <path d="M160.999,76.071 C119.115,76.071 85.04,109.22 85.04,149.965 C85.04,190.709 119.115,223.856 160.999,223.856 C202.883,223.856 236.958,190.709 236.958,149.965 C236.958,109.22 202.883,76.071 160.999,76.071 Z M160.999,203.855 C130.144,203.855 105.04,179.68 105.04,149.964 C105.04,120.247 130.144,96.07 160.999,96.07 C191.854,96.07 216.958,120.247 216.958,149.964 C216.958,179.68 191.855,203.855 160.999,203.855 Z" id="Shape"></path>
        </g>
    </g>
</svg>