<?xml version="1.0" encoding="UTF-8"?>
<svg width="481px" height="481px" viewBox="0 0 481 481" version="1.1" xmlns="http://www.w3.org/2000/svg" xmlns:xlink="http://www.w3.org/1999/xlink">
    <!-- Generator: Sketch 49.2 (51160) - http://www.bohemiancoding.com/sketch -->
    <title>telephone</title>
    <desc>Created with Sketch.</desc>
    <defs></defs>
    <g id="Page-1" stroke="none" stroke-width="1" fill="none" fill-rule="evenodd">
        <g id="Landingpage-White" transform="translate(-513.000000, -2061.000000)" fill="#FFFFFF" fill-rule="nonzero">
            <g id="telephone" transform="translate(513.000000, 2061.000000)">
                <path d="M365.354,317.9 C349.654,302.4 330.054,302.4 314.454,317.9 C302.554,329.7 290.654,341.5 278.954,353.5 C275.754,356.8 273.054,357.5 269.154,355.3 C261.454,351.1 253.254,347.7 245.854,343.1 C211.354,321.4 182.454,293.5 156.854,262.1 C144.154,246.5 132.854,229.8 124.954,211 C123.354,207.2 123.654,204.7 126.754,201.6 C138.654,190.1 150.254,178.3 161.954,166.5 C178.254,150.1 178.254,130.9 161.854,114.4 C152.554,105 143.254,95.8 133.954,86.4 C124.354,76.8 114.854,67.1 105.154,57.6 C89.454,42.3 69.854,42.3 54.254,57.7 C42.254,69.5 30.754,81.6 18.554,93.2 C7.254,103.9 1.554,117 0.354,132.3 C-1.546,157.2 4.554,180.7 13.154,203.6 C30.754,251 57.554,293.1 90.054,331.7 C133.954,383.9 186.354,425.2 247.654,455 C275.254,468.4 303.854,478.7 334.954,480.4 C356.354,481.6 374.954,476.2 389.854,459.5 C400.054,448.1 411.554,437.7 422.354,426.8 C438.354,410.6 438.454,391 422.554,375 C403.554,355.9 384.454,336.9 365.354,317.9 Z" id="Shape"></path>
                <path d="M346.254,238.2 L383.154,231.9 C377.354,198 361.354,167.3 337.054,142.9 C311.354,117.2 278.854,101 243.054,96 L237.854,133.1 C265.554,137 290.754,149.5 310.654,169.4 C329.454,188.2 341.754,212 346.254,238.2 Z" id="Shape"></path>
                <path d="M403.954,77.8 C361.354,35.2 307.454,8.3 247.954,0 L242.754,37.1 C294.154,44.3 340.754,67.6 377.554,104.3 C412.454,139.2 435.354,183.3 443.654,231.8 L480.554,225.5 C470.854,169.3 444.354,118.3 403.954,77.8 Z" id="Shape"></path>
            </g>
        </g>
    </g>
</svg>