<svg width="466" height="512" viewBox="0 0 466 512" fill="none" xmlns="http://www.w3.org/2000/svg">
<path d="M233.281 232.255C223.855 232.255 216.214 239.896 216.214 249.322C216.213 256.137 220.218 262.002 225.993 264.738V285.485C225.993 289.509 229.255 292.772 233.28 292.772C237.305 292.772 240.567 289.51 240.567 285.485V264.738C246.343 262.002 250.348 256.137 250.348 249.322C250.348 239.896 242.707 232.255 233.281 232.255Z" fill="white"/>
<path d="M415.138 111.149C383.769 98.736 358.871 75.874 345.03 46.776C341.266 38.863 333.13 33.749 324.301 33.749H141.699C132.871 33.749 124.735 38.862 120.971 46.776C107.131 75.874 82.2319 98.736 50.8629 111.149C42.0639 114.63 36.3789 123.018 36.3789 132.517V176.929C36.3789 235.148 53.3559 292.659 85.4749 343.247C117.906 394.33 164.9 437.021 221.373 466.703L222.293 467.187C225.646 468.949 229.323 469.83 233.001 469.83C236.677 469.83 240.355 468.949 243.706 467.188L244.629 466.703C301.103 437.02 348.096 394.33 380.528 343.247C412.646 292.658 429.623 235.147 429.623 176.929V132.517C429.623 123.017 423.936 114.63 415.138 111.149ZM415.05 176.93C415.05 232.377 398.858 287.187 368.225 335.437C337.156 384.373 292.072 425.304 237.851 453.804L236.928 454.288C234.469 455.582 231.533 455.581 229.073 454.288L228.153 453.805C173.93 425.305 128.846 384.374 97.7759 335.437C67.1429 287.188 50.9509 232.377 50.9509 176.929V132.517C50.9509 129.036 53.0209 125.967 56.2239 124.7C91.0339 110.926 118.701 85.475 134.13 53.036C135.491 50.173 138.462 48.323 141.698 48.323H324.302C327.538 48.323 330.508 50.173 331.87 53.036C347.3 85.475 374.968 110.926 409.777 124.701C412.98 125.968 415.05 129.037 415.05 132.518V176.93Z" fill="white"/>
<path d="M451.672 246.08C447.747 245.192 443.845 247.655 442.959 251.581C420.767 349.758 353.179 434.901 257.523 485.178L235.294 496.862C233.859 497.616 232.145 497.616 230.71 496.862L208.481 485.178C112.675 434.822 45.0531 349.532 22.9541 251.178C22.0731 247.252 18.1731 244.783 14.2481 245.666C10.3221 246.548 7.85411 250.446 8.73611 254.372C31.7721 356.903 102.105 445.73 201.701 498.077L223.93 509.761C226.771 511.253 229.886 512 233.002 512C236.117 512 239.234 511.253 242.074 509.76L264.303 498.076C363.742 445.811 434.04 357.138 457.174 254.793C458.06 250.868 455.597 246.967 451.672 246.08Z" fill="white"/>
<path d="M448.125 83.377C409.216 79.272 378.622 51.961 373.725 16.963C372.372 7.292 364.061 0 354.393 0H111.609C101.942 0 93.631 7.292 92.278 16.963C87.38 51.962 56.786 79.272 17.878 83.377C8.01898 84.417 0.583984 92.746 0.583984 102.75V180.994C0.583984 192.364 1.17298 203.859 2.33498 215.161C2.72098 218.911 5.88499 221.703 9.57499 221.703C9.82399 221.703 10.076 221.69 10.329 221.664C14.332 221.253 17.244 217.674 16.832 213.671C15.721 202.862 15.157 191.868 15.157 180.994V102.75C15.157 100.265 17.024 98.12 19.407 97.869C64.983 93.061 100.883 60.621 106.711 18.982C107.069 16.427 109.128 14.573 111.609 14.573H354.392C356.873 14.573 358.934 16.427 359.291 18.982C365.117 60.621 401.018 93.06 446.594 97.869C448.977 98.12 450.844 100.265 450.844 102.75V180.994C450.844 191.753 450.292 202.633 449.204 213.334C448.797 217.337 451.713 220.913 455.716 221.32C459.717 221.73 463.295 218.811 463.703 214.808C464.841 203.62 465.417 192.244 465.417 180.994V102.75C465.418 92.746 457.984 84.417 448.125 83.377Z" fill="white"/>
<path d="M316.46 181.865H304.479V147.083C304.479 107.824 272.54 75.8848 233.28 75.8848C194.021 75.8848 162.081 107.824 162.081 147.083V181.865H150.101C137.323 181.865 126.927 192.261 126.927 205.039V309.368C126.927 322.146 137.323 332.542 150.101 332.542H316.46C329.238 332.542 339.634 322.146 339.634 309.368V205.039C339.634 192.261 329.238 181.865 316.46 181.865ZM176.655 147.084C176.655 115.861 202.057 90.4588 233.281 90.4588C264.505 90.4588 289.907 115.861 289.907 147.084V181.866H176.655V147.084ZM325.061 309.368C325.061 314.11 321.202 317.969 316.46 317.969H150.101C145.358 317.969 141.5 314.11 141.5 309.368V205.039C141.5 200.297 145.359 196.438 150.101 196.438H316.46C321.202 196.438 325.061 200.296 325.061 205.039V309.368Z" fill="white"/>
</svg>
