<?xml version="1.0" encoding="UTF-8"?>
<svg width="15px" height="12px" viewBox="0 0 15 12" version="1.1" xmlns="http://www.w3.org/2000/svg" xmlns:xlink="http://www.w3.org/1999/xlink">
    <!-- Generator: Sketch 49.2 (51160) - http://www.bohemiancoding.com/sketch -->
    <title>download-hexagon</title>
    <desc>Created with Sketch.</desc>
    <defs></defs>
    <g id="Page-1" stroke="none" stroke-width="1" fill="none" fill-rule="evenodd">
        <g id="Landingpage-White" transform="translate(-1267.000000, -6676.000000)" fill="#FFFFFF" fill-rule="nonzero">
            <g id="Group-4-Copy" transform="translate(820.000000, 6508.000000)">
                <g id="download-hexagon" transform="translate(454.500000, 174.500000) rotate(-90.000000) translate(-454.500000, -174.500000) translate(448.000000, 167.000000)">
                    <g id="Group">
                        <path d="M5.88095238,1.44409938 L5.88095238,12.1024845 L2.04285714,8.34782609 C1.7952381,8.10559006 1.42380952,8.10559006 1.17619048,8.34782609 C0.928571429,8.59006211 0.928571429,8.95341615 1.17619048,9.19565217 L6.12857143,14.0403727 C6.12857143,14.0403727 6.25238095,14.1614907 6.37619048,14.1614907 C6.5,14.1614907 6.5,14.1614907 6.62380952,14.1614907 C6.74761905,14.1614907 6.74761905,14.1614907 6.87142857,14.1614907 C6.9952381,14.1614907 6.9952381,14.0403727 7.11904762,14.0403727 L12.0714286,9.19565217 C12.3190476,8.95341615 12.3190476,8.59006211 12.0714286,8.34782609 C11.8238095,8.10559006 11.452381,8.10559006 11.2047619,8.34782609 L7.11904762,12.1024845 L7.11904762,1.44409938 C7.11904762,1.08074534 6.87142857,0.838509317 6.5,0.838509317 C6.12857143,0.838509317 5.88095238,1.08074534 5.88095238,1.44409938 Z" id="Shape"></path>
                    </g>
                </g>
            </g>
        </g>
    </g>
</svg>